<svg width="194" height="187" viewBox="0 0 194 187" fill="none" xmlns="http://www.w3.org/2000/svg">
<path d="M176.779 95.5743V61.6928C176.724 60.7576 176.32 59.877 175.648 59.224C174.977 58.5711 174.085 58.193 173.148 58.1641H144.939V41.3404C144.963 40.9161 144.899 40.4914 144.752 40.0926C144.606 39.6937 144.379 39.3292 144.086 39.0214C143.793 38.7136 143.44 38.469 143.048 38.3028C142.657 38.1365 142.236 38.0521 141.811 38.0548H99.6933V23.5028C102.467 22.7096 104.861 20.9425 106.436 18.5259C108.012 16.1094 108.662 13.2057 108.269 10.348C107.875 7.49027 106.464 4.87043 104.294 2.96955C102.125 1.06866 99.3418 0.0143277 96.4572 0.000144965C93.5726 -0.0140377 90.7797 1.01289 88.5913 2.89234C86.403 4.7718 84.9661 7.37763 84.5446 10.2313C84.123 13.085 84.7451 15.995 86.2965 18.4269C87.848 20.8588 90.2247 22.6494 92.9902 23.4699V38.0548H51.0029C50.5711 38.0491 50.1426 38.1304 49.7429 38.2939C49.3432 38.4574 48.9805 38.6996 48.6764 39.0062C48.3724 39.3128 48.1331 39.6775 47.9729 40.0785C47.8127 40.4795 47.7349 40.9087 47.7441 41.3404V58.1641H19.6613C17.8107 58.1641 16.4628 59.8399 16.4628 61.6928V95.5743C11.8356 96.4436 7.65767 98.9026 4.65151 102.526C1.64535 106.15 0 110.71 0 115.418C0 120.126 1.64535 124.686 4.65151 128.31C7.65767 131.933 11.8356 134.392 16.4628 135.262V183.189C16.4444 183.626 16.5128 184.063 16.6639 184.473C16.815 184.884 17.0458 185.26 17.3432 185.581C17.6405 185.902 17.9985 186.161 18.3963 186.343C18.7942 186.525 19.2241 186.626 19.6613 186.641H173.148C175 186.641 176.779 185.038 176.779 183.187V135.26C185.717 133.502 193.241 125.276 193.241 115.416C193.241 105.556 185.717 97.3316 176.779 95.5743ZM91.1189 11.9818C91.1189 10.9362 91.429 9.91395 92.0099 9.04449C92.5909 8.17504 93.4166 7.49738 94.3827 7.09722C95.3488 6.69705 96.4118 6.59234 97.4374 6.79635C98.463 7.00035 99.4051 7.5039 100.145 8.24331C100.884 8.98273 101.387 9.92479 101.591 10.9504C101.795 11.976 101.691 13.039 101.291 14.0051C100.89 14.9712 100.213 15.797 99.3433 16.3779C98.4739 16.9589 97.4517 17.2689 96.406 17.2689C95.0043 17.2673 93.6604 16.7098 92.6692 15.7186C91.6781 14.7274 91.1205 13.3836 91.1189 11.9818ZM54.4472 44.7579H138.236V58.1641H54.4472V44.7579ZM6.7042 115.42C6.71609 112.496 7.6726 109.654 9.43115 107.318C11.1897 104.981 13.6561 103.276 16.4628 102.456V128.379C13.6569 127.559 11.191 125.855 9.43254 123.519C7.67405 121.184 6.71708 118.343 6.7042 115.42ZM170.076 179.938H23.166V64.8673H170.076V179.938ZM176.779 128.379V102.456C179.592 103.265 182.065 104.967 183.826 107.305C185.586 109.644 186.538 112.491 186.538 115.418C186.538 118.345 185.586 121.192 183.826 123.531C182.065 125.869 179.592 127.571 176.779 128.38V128.379Z" fill="#34D887"/>
<path d="M138.236 130.223C138.236 129.334 137.883 128.481 137.255 127.853C136.626 127.224 135.774 126.871 134.885 126.871H58.3574C57.4685 126.871 56.616 127.224 55.9875 127.853C55.3589 128.481 55.0058 129.334 55.0058 130.223V163.738C55.0058 164.627 55.3589 165.48 55.9875 166.108C56.616 166.737 57.4685 167.09 58.3574 167.09H134.885C135.774 167.09 136.626 166.737 137.255 166.108C137.883 165.48 138.236 164.627 138.236 163.738V130.223ZM99.6933 133.574H112.541V160.387H99.6933V133.574ZM92.9902 160.387H80.1425V133.574H92.9902V160.387ZM61.7089 133.574H73.4394V160.387H61.7089V133.574ZM130.975 160.387H119.244V133.574H130.975V160.387Z" fill="#34D887"/>
<path d="M80.1425 89.4454C80.1425 88.5565 79.7894 87.704 79.1609 87.0755C78.5323 86.4469 77.6799 86.0938 76.791 86.0938H55.0058C54.1169 86.0938 53.2644 86.4469 52.6359 87.0755C52.0074 87.704 51.6542 88.5565 51.6542 89.4454V111.231C51.6542 112.119 52.0074 112.972 52.6359 113.6C53.2644 114.229 54.1169 114.582 55.0058 114.582H76.791C77.6799 114.582 78.5323 114.229 79.1609 113.6C79.7894 112.972 80.1425 112.119 80.1425 111.231V89.4454ZM72.8808 107.32H58.3574V92.7969H72.8808V107.32Z" fill="#34D887"/>
<path d="M141.588 89.4454C141.588 88.5565 141.235 87.704 140.606 87.0755C139.978 86.4469 139.125 86.0938 138.236 86.0938H116.451C115.562 86.0938 114.71 86.4469 114.081 87.0755C113.453 87.704 113.1 88.5565 113.1 89.4454V111.231C113.1 112.119 113.453 112.972 114.081 113.6C114.71 114.229 115.562 114.582 116.451 114.582H138.236C139.125 114.582 139.978 114.229 140.606 113.6C141.235 112.972 141.588 112.119 141.588 111.231V89.4454ZM134.885 107.32H119.803V92.7969H134.885V107.32Z" fill="#34D887"/>
</svg>
