<svg width="65" height="65" viewBox="0 0 65 65" fill="none" xmlns="http://www.w3.org/2000/svg">
<path d="M64.2277 32.113C64.2277 49.849 49.8511 64.2277 32.1139 64.2277C14.3775 64.2277 0 49.849 0 32.113C0 14.3772 14.3775 0 32.1139 0C49.8511 0 64.2277 14.3772 64.2277 32.113Z" fill="#FDD302"/>
<path d="M9.58492 32.113C9.58492 16.0064 21.4436 2.67003 36.9065 0.356203C35.343 0.122221 33.7428 0 32.1142 0C14.3778 0 0.000305176 14.3772 0.000305176 32.113C0.000305176 49.849 14.3778 64.2277 32.1142 64.2277C33.7428 64.2277 35.343 64.1055 36.9065 63.8715C21.4436 61.5574 9.58492 48.2201 9.58492 32.113Z" fill="#F9C500"/>
<path d="M32.1139 48.8976C27.5995 48.8976 23.0845 47.1942 19.6476 43.7876C18.7685 42.9162 18.7619 41.4971 19.6333 40.6182C20.505 39.7394 21.9241 39.7328 22.803 40.6039C27.9374 45.6926 36.2906 45.6926 41.4247 40.6039C42.3033 39.7328 43.7224 39.7388 44.5941 40.6182C45.4655 41.4971 45.4592 42.9162 44.5798 43.7876C41.1433 47.1942 36.6286 48.8976 32.1139 48.8976Z" fill="#8B3D27"/>
<path d="M50.8459 31.6635C49.6079 31.6635 48.6047 30.6603 48.6047 29.4223C48.6047 27.6616 47.1389 26.229 45.3367 26.229C43.5345 26.229 42.0681 27.6616 42.0681 29.4223C42.0681 30.6603 41.065 31.6635 39.8269 31.6635C38.5889 31.6635 37.5857 30.6603 37.5857 29.4223C37.5857 25.19 41.0629 21.7466 45.3367 21.7466C49.6103 21.7466 53.0871 25.1897 53.0871 29.4223C53.0871 30.6603 52.0837 31.6635 50.8459 31.6635Z" fill="#8B3D27"/>
<path d="M24.4011 31.6635C23.1631 31.6635 22.1599 30.6603 22.1599 29.4223C22.1599 27.6616 20.6936 26.229 18.8913 26.229C17.0894 26.229 15.6233 27.6616 15.6233 29.4223C15.6233 30.6603 14.6202 31.6635 13.3821 31.6635C12.1441 31.6635 11.1409 30.6603 11.1409 29.4223C11.1409 25.19 14.6178 21.7466 18.8913 21.7466C23.1655 21.7466 26.6423 25.1897 26.6423 29.4223C26.6423 30.6603 25.6389 31.6635 24.4011 31.6635Z" fill="#8B3D27"/>
</svg>
